<?xml version="1.0" encoding="UTF-8" standalone="no" ?>
<!DOCTYPE svg PUBLIC "-//W3C//DTD SVG 1.1//EN" "http://www.w3.org/Graphics/SVG/1.1/DTD/svg11.dtd">
<svg xmlns="http://www.w3.org/2000/svg" xmlns:xlink="http://www.w3.org/1999/xlink" version="1.1" width="640" height="160" viewBox="0 0 640 160" xml:space="preserve">
<desc>Created with Fabric.js 5.3.0</desc>
<defs>
</defs>
<g transform="matrix(3.6800210518 0 0 0.4910929862 314.8210398397 -53.6137607352)" id="ttZA8kVX3D_64E5XClvhF"  >
<path style="stroke: rgb(186,228,52); stroke-width: 0; stroke-dasharray: none; stroke-linecap: butt; stroke-dashoffset: 0; stroke-linejoin: miter; stroke-miterlimit: 4; fill: rgb(48,56,65); fill-rule: nonzero; opacity: 1;"  transform=" translate(-0.000005, -0.000005)" d="M -86.98342 -86.98342 L 86.98343 -86.98342 L 86.98343 86.98343 L -86.98342 86.98343 z" stroke-linecap="round" />
</g>
<g transform="matrix(1.8879848359 0 0 -0.4774080187 322.7221073918 13.5843684512)" id="pH4Q3BCcvKcwDOVHY8Ouf"  >
<path style="stroke: rgb(102,172,27); stroke-width: 0; stroke-dasharray: none; stroke-linecap: butt; stroke-dashoffset: 0; stroke-linejoin: miter; stroke-miterlimit: 4; fill: rgb(48,56,65); fill-rule: nonzero; opacity: 1;"  transform=" translate(-0.0000049159, 0.0000103755)" d="M -134.72684 -99.36528 C -134.83960000000002 -107.56024 -133.33386000000002 -114.7101 -131.27542 -115.75404 L -109.75368 -126.66877000000001 C -109.75368 -126.66877000000001 -91.99457000000001 -133.28195 -81.02901 -135.98948000000001 C -59.42869 -141.32286000000002 -34.11454 -140.7372 -8.92644 -140.7372 C 32.20155 -140.7372 72.44949 -113.90222 98.00229 -113.90222 C 161.66689 -113.90222 123.23544 -113.90222 123.23544 -113.90222 L 123.23544 140.75617 L -131.42295000000001 140.75617 z" stroke-linecap="round" />
</g>
<g transform="matrix(-1.6200922557 -0.0849054374 0.1100217603 -2.0993402463 580.2205580379 78.5946698135)" id="h0OyarAbcSpXMa3uCHALt"  >
<path style="stroke: none; stroke-width: 1; stroke-dasharray: none; stroke-linecap: butt; stroke-dashoffset: 0; stroke-linejoin: miter; stroke-miterlimit: 4; fill: rgb(48,56,65); fill-rule: nonzero; opacity: 1;"  transform=" translate(0, 0)" d="M -40 -40 L -33.37561 -25.902 L 39.99999999999999 40 L -40.00000000000001 40 z" stroke-linecap="round" />
</g>
<g transform="matrix(1.8953101854 0 0 1.297191863 578.1946050537 14.3656184512)" id="lNgKW69qrjQD96HsWwSu9"  >
<path style="stroke: rgb(104,228,26); stroke-width: 0; stroke-dasharray: none; stroke-linecap: butt; stroke-dashoffset: 0; stroke-linejoin: miter; stroke-miterlimit: 4; fill: rgb(48,56,65); fill-rule: nonzero; opacity: 1;"  transform=" translate(-0.000005, -0.000005)" d="M -41.12426 -41.12426 L 41.12427 -41.12426 L 41.12427 41.12427 L -41.12426 41.12427 z" stroke-linecap="round" />
</g>
<g transform="matrix(1.3218262406 0 0 1.3086523838 501.1084901682 96.5290232932)" id="-4Q27pI3__kt-MBFsZ8gJ"  >
<path style="stroke: rgb(0,0,0); stroke-width: 0; stroke-dasharray: none; stroke-linecap: butt; stroke-dashoffset: 0; stroke-linejoin: miter; stroke-miterlimit: 4; fill: rgb(48,56,65); fill-rule: nonzero; opacity: 1;"  transform=" translate(0, 0)" d="M -91.48881 -32.4034 L -104.77995 -14.048969999999997 L -8.151359999999997 -19.338569999999997 C 8.317400000000003 -20.281519999999997 36.9605 -20.76871 52.0255 -14.048969999999997 C 79.56897000000001 -1.7631999999999977 96.42336 21.779390000000006 104.77994000000001 50.75783 L 104.77994000000001 50.75783 L 104.77994000000001 -50.75783 z" stroke-linecap="round" />
</g>
<g transform="matrix(1.3818251864 0 0 1.3742965089 50.8136213046 22.5741811083)" id="sM9Gjxs-lPIl4x9p_G_Eh"  >
<path style="stroke: rgb(0,0,0); stroke-width: 0; stroke-dasharray: none; stroke-linecap: butt; stroke-dashoffset: 0; stroke-linejoin: miter; stroke-miterlimit: 4; fill: rgb(48,56,65); fill-rule: nonzero; opacity: 1;"  transform=" translate(-0.0000024491, 0.000005)" d="M -37.6199 -26.87862 C -37.6199 -26.87862 -39.114200000000004 -3.1566800000000015 -25.14366 12.812940000000001 C -11.17312 28.78257 20.008779999999998 34.09754 20.008779999999998 34.09754 L 37.666309999999996 -34.09754999999999 z" stroke-linecap="round" />
</g>
<g transform="matrix(1.4357974788 0 0 0.3039081294 302.1413881809 -163.0074918511)" id="0cK_Dm6okqAPRQTl6elkl"  >
<path style="stroke: rgb(227,112,162); stroke-width: 0; stroke-dasharray: none; stroke-linecap: butt; stroke-dashoffset: 0; stroke-linejoin: miter; stroke-miterlimit: 4; fill: rgb(48,56,65); fill-rule: nonzero; opacity: 1;"  transform=" translate(-0.000005, -0.000005)" d="M -238.68852 -238.68852 L 69.77910999999997 -238.68852 L 238.68853 -238.68852 L 238.68853 238.68853 L -238.68852 238.68853 z" stroke-linecap="round" />
</g>
</svg>